<svg xmlns="http://www.w3.org/2000/svg" width="1240" height="1240"><path d="M624.858 177.656c-23.52 35.713-49.578 99.28-56.419 137.633l-.676 3.79 21.119-.29c11.616-.159 21.119-.159 21.119.001-.001.159-.84 1.959-1.864 4-6.886 13.71-18.178 46.274-19.938 57.496l-.821 5.235 6.763-2.269c15.245-5.113 47.767-5.018 63.265.185 4.2 1.409 8.302 2.563 9.115 2.563.813 0 1.479.525 1.479 1.167 0 .641.213.954.472.694.26-.26-.383-4.055-1.429-8.434-3.85-16.119-11.131-36.585-19.509-54.84-1.998-4.352-3.013-7.4-2.257-6.772.903.749 8.216 1.235 21.283 1.413l19.907.272.611 3.761c.336 2.069.942 4.093 1.348 4.498.405.405.493-.387.195-1.761-.298-1.374-1.049-5.198-1.668-8.498-7.561-40.315-27.053-90.407-50.197-129-9.68-16.14-8.886-15.417-11.898-10.844M415 252.839c0 34.613 3.907 67.515 11.964 100.745 3.87 15.958 10.549 37.782 14.098 46.062l1.848 4.311 9.795-5.757c5.387-3.166 12.382-7.055 15.545-8.642 3.163-1.587 5.79-3.374 5.84-3.972.049-.597.731 2.514 1.514 6.914 3.603 20.235 11.183 47.806 17.56 63.875 2.156 5.431 3.748 10.046 3.539 10.256-.21.209-6.056-1.872-12.993-4.625S470.63 457 470.059 457c-.571 0-5.687-1.305-11.37-2.901-11.802-3.314-26.685-6.423-41.189-8.604-5.5-.827-11.644-1.839-13.653-2.249l-3.654-.746 8.89-16c4.889-8.8 9.578-16.505 10.419-17.121 1.229-.902-.78-1.923-10.237-5.205-25.417-8.821-52.537-14.327-87.265-17.717-15.125-1.477-62.005-2.011-61.993-.707.018 1.953 13.313 24.493 23.446 39.75 18.66 28.097 35.647 48.649 58.682 71 11.353 11.016 23.112 21.174 20.107 17.368-1.059-1.34-.126-3.638 5.882-14.48 3.927-7.089 8.343-14.745 9.813-17.014l2.672-4.126 10.445 13.08c12.779 16.001 32.371 36.323 44.446 46.101 12.17 9.855 32.5 23.758 32.5 22.226 0-.228-2.475-2.283-5.5-4.567-3.025-2.284-5.5-4.704-5.5-5.377 0-.674-1.575-2.67-3.5-4.437-1.925-1.767-3.5-3.643-3.5-4.171 0-.527-1.115-1.835-2.478-2.907-1.363-1.072-2.922-3.117-3.464-4.545-.543-1.427-2.049-2.862-3.346-3.187-1.735-.436-3.232-2.492-5.663-7.778-4.637-10.084-5.206-12.199-5.568-20.686-.415-9.739 2.185-18.091 7.768-24.954 2.257-2.775 4.412-5.046 4.788-5.046.376 0 2.312-1.105 4.303-2.456 4.406-2.99 8.8-4.167 18.79-5.032 7.542-.653 7.663-.625 10.5 2.345 2.49 2.608 3.783 3.081 9.758 3.573 11.24.925 14.33 2.112 16.558 6.358 4.303 8.204 10.062 15.539 14.681 18.7 2.68 1.835 7.034 5.35 9.674 7.812 5.455 5.086 15.448 9.976 14.176 6.937-.4-.955-2.438-6.912-4.529-13.237-3.612-10.929-4.019-11.646-8.196-14.434-7.337-4.898-14.629-16.987-15.191-25.186-.155-2.266-.523-4.516-.818-5-.771-1.266.888-10.803 3.207-18.44 3.631-11.956 12.101-20.355 23.711-23.513 5.959-1.621 6.39-1.606 13.118.437 7.141 2.169 8.312 3.024 11.103 8.104.89 1.62 3.323 5.64 5.408 8.935 2.622 4.145 4.212 8.209 5.162 13.194 1.473 7.729 1.06 14.308-.83 13.212-.617-.357 2.971 3.609 7.974 8.816 5.002 5.206 10.488 11.389 12.191 13.74l3.096 4.274.618-3.82c.34-2.1 1.452-7.869 2.471-12.819l1.854-9-4.226-8c-5.681-10.753-18.606-30.866-24.673-38.396-2.71-3.363-4.927-6.337-4.927-6.609 0-.272 1.518-.495 3.374-.495 3.431 0 12.003-4.126 13.373-6.437.414-.699 1.309-1.448 1.989-1.666C587.755 393.249 564.395 353 562 353c-1.2 0-2.345 25.973-1.557 35.31l.691 8.19-9.317-9.1c-9.529-9.307-23.645-21.863-29.774-26.483-1.885-1.421-2.77-2.584-1.967-2.584.803 0 7.785-3.675 15.516-8.166 7.731-4.492 14.553-8.167 15.16-8.167.606 0 2.036 1.186 3.175 2.635 1.14 1.449 2.073 2.288 2.073 1.864 0-2.298-17.618-22.335-33.886-38.538-24.828-24.728-46.74-42.038-77.114-60.918C434.123 240.282 417.068 231 415.522 231c-.287 0-.522 9.828-.522 21.839m415-17.243c-31.159 16.727-65.727 41.84-91.382 66.388-12.311 11.78-32.705 34.067-32.087 35.066.926 1.499 31.046 17.155 33.282 17.3l2.313.15-2.265 1.5c-6.52 4.317-19.813 15.818-31.435 27.198C701.235 390.239 695.07 396 694.725 396c-.344 0-.361-5.288-.037-11.75.797-15.877-.377-31.753-2.234-30.212-2.124 1.763-12.901 18.787-17.414 27.508-2.25 4.348-4.53 8.344-5.066 8.88-1.883 1.883-.942 3.271 2.276 3.356 2.446.066 12.608 4.03 17.581 6.858.182.104-.204 1.188-.858 2.41-1.126 2.105-1.04 2.184 1.659 1.506 2.871-.72 4.324-2.115 4.353-4.174.039-2.842 18.389-2.053 28.41 1.222 6.484 2.119 16.703 7.511 17.336 9.146.265.688.997 1.272 1.626 1.299 2.403.102 15.06 17.261 17.666 23.951.75 1.925 1.839 3.823 2.42 4.217.678.46.29 1.486-1.082 2.861-1.851 1.855-2.006 2.634-1.157 5.783 1.089 4.037 2.796 6.475 2.796 3.994 0-.85.863-2.326 1.917-3.28 1.512-1.368 2.347-1.504 3.957-.642 1.122.6 2.397 1.699 2.833 2.441.436.742 3.043 2.346 5.793 3.565l5 2.214-12.058 4.732c-12.97 5.09-17.662 7.844-16.921 9.933.258.724-.879 4.484-2.526 8.354-1.647 3.871-2.995 7.434-2.995 7.918 0 .485 2.277-.017 5.061-1.114 2.783-1.097 7.171-2.468 9.749-3.046 2.579-.578 5.669-1.97 6.866-3.095 1.197-1.124 2.595-1.785 3.108-1.469.512.317 2.423.148 4.246-.375 1.823-.522 3.799-.571 4.392-.108.593.463 3.413 1.104 6.266 1.425 11.025 1.239 18.269 6.31 22.788 15.953 3.245 6.926.542 21.261-5.654 29.982-1.071 1.509-1.703 3.14-1.403 3.625.299.485-1.459 1.443-3.907 2.129-3.173.888-5.858 2.733-9.345 6.42-2.691 2.845-5.967 5.928-7.28 6.85l-7.387 5.19c-2.75 1.932-5.525 3.519-6.167 3.528-.641.008-1.316.352-1.5.765-.398.896-9.791 5.455-15.123 7.34-2.084.738-4.517 2.144-5.405 3.125-1.515 1.674-1.434 1.786 1.29 1.809 1.598.013 6.726.864 11.396 1.891l8.491 1.868 7.009-3.504c10.47-5.234 22.217-12.486 34.776-21.468 6.178-4.419 10.723-7.497 10.099-6.839-.855.902-.058 2.832 3.248 7.862 2.41 3.666 4.383 7.401 4.384 8.299.002 1.466.408 1.493 3.972.265 8.392-2.891 40.03-21.738 40.03-23.845 0-1.502-23.993-2.773-34.974-1.852-7.647.641-8.999-.362-4.477-3.325 3.295-2.159 24.082-24.778 31.274-34.031l5.562-7.156 1.347 2.596c.741 1.427 5.031 8.642 9.535 16.033l8.189 13.438-3.478 3.004c-5.653 4.882-1.088 1.869 7.022-4.635 11.555-9.267 43.485-41.743 54.197-55.125 11.741-14.666 23.823-31.495 31.37-43.696 6.543-10.576 17.416-29.953 17.426-31.054.013-1.35-45.246-.79-61.582.762-40.025 3.803-67.185 10.03-107.622 24.675-1.97.713-2.424 1.3-1.663 2.147 1.35 1.502 18.806 30.067 18.538 30.335-.111.112-9.194 2.018-20.183 4.237-10.99 2.22-23.13 4.948-26.978 6.065-3.848 1.116-7.551 2.029-8.23 2.029-.678 0 .967-3.369 3.655-7.487 5.644-8.646 16.481-29.437 15.733-30.185-.716-.717-16.338 7.31-28.155 14.466-5.496 3.329-10.127 5.918-10.291 5.754-.164-.163 1.284-5.515 3.217-11.892 4.135-13.642 7.323-29.052 9.031-43.656.681-5.82 1.409-9.187 1.633-7.555.366 2.667 1.895 3.747 16.213 11.446 16.922 9.099 16.155 8.297 14.12 14.766-.493 1.566-.425 1.606.451.262 2.132-3.271 11.384-32.752 15.706-50.045 6.933-27.744 10.402-52.914 11.99-86.999.672-14.437-.143-33.891-1.419-33.858-.361.009-4.482 2.07-9.157 4.579M567.123 321.5c-.083 1.1-.382 3.125-.665 4.5l-.514 2.5 1.071-2.453c.589-1.349.888-3.374.664-4.5-.396-1.994-.411-1.995-.556-.047m135.749 19.25c-1.243 1.586-1.208 1.621.378.378 1.666-1.307 2.195-2.128 1.372-2.128-.207 0-.995.788-1.75 1.75M817.5 414.536c-1.65.756-2.325 1.378-1.5 1.383.825.006 2.625-.633 4-1.419 3.162-1.807 1.473-1.783-2.5.036m-365.934 10.629c2.023 4.034 5.467 10.36 7.654 14.058 3.972 6.717 3.978 6.721 6.315 5 1.286-.948 3.127-3.523 4.09-5.723.962-2.2 2.332-4.701 3.043-5.557 1.125-1.355-.102-2.347-9.438-7.637-5.901-3.344-11.767-6.394-13.035-6.778-2.216-.671-2.163-.412 1.371 6.637M386.5 530.974l-4 .526 9.477 5.727c9.451 5.712 9.48 5.721 10.715 3.5.68-1.225 1.253-3.914 1.273-5.977.027-2.875-.373-3.777-1.715-3.866-6.031-.401-12.288-.365-15.75.09m489 2c1.1.487 3.405.917 5.122.956l3.123.07.605 17.75c.333 9.763.728 37.887.877 62.499.272 44.534.283 44.749 2.348 44.75 4.007.002 25.066-4.113 38.872-7.596 40.78-10.288 82.06-27.621 116.462-48.901 5.095-3.151 8.887-6.093 8.427-6.538-2.405-2.324-26.418-15.993-40.139-22.847-36.737-18.353-76.681-31.545-113.639-37.53-19.39-3.139-24.656-3.763-22.058-2.613M350 536.703c-7.558 1.3-36.078 8.629-46 11.821-29.264 9.412-61.796 24.111-87.401 39.489-12.727 7.644-13.705 8.437-11.979 9.709 11.613 8.553 49.798 28.105 71.88 36.805 21.982 8.661 55.302 18.52 70.5 20.861l3.5.539-3.395-1.149-3.394-1.15.633-19.564c.348-10.76.932-36.776 1.298-57.814l.665-38.25 2.597-.07c1.428-.039 3.496-.457 4.596-.93 2.126-.914.757-1.03-3.5-.297m529.25 122.986c.962.252 2.538.252 3.5 0 .962-.251.175-.457-1.75-.457s-2.712.206-1.75.457M478.153 774.008c-9.861 2.089-13.918 7.067-10.906 13.383 1.883 3.95 6.973 8.134 11.167 9.181 2.603.649 2.826.524 2.089-1.172-1.767-4.061-1.767-9.451-.001-11.402 2.513-2.777 11.47-4.324 20.403-3.524 11.809 1.059 19.969 3.201 42.095 11.052 37.586 13.338 47.437 15.764 64 15.761 9.41-.001 12.526-.397 17.145-2.177 7.839-3.021 13.22-7.185 17.379-13.448 3.312-4.988 8.069-15.662 6.981-15.662-.268 0-2.405 1.463-4.748 3.252C633.419 787.143 620.33 791 603.889 791c-13.859 0-26.937-2.08-56.342-8.96-11.576-2.709-24.872-5.665-29.547-6.569-9.938-1.923-33.58-2.791-39.847-1.463m-246.992 3.024c-11.978 3.138-22.37 9.254-32.23 18.968-4.746 4.675-9.561 9.85-10.701 11.5l-2.073 3-22.329-.015c-18.506-.013-23.319-.32-28.117-1.79-7.588-2.325-10.113-4.829-9.386-9.308.302-1.863.228-3.387-.165-3.387-1.781 0-4.992 3.194-5.584 5.553-1.206 4.805 7.226 20.259 12.559 23.017 4.208 2.176 12.329 1.735 30.498-1.654 9.093-1.696 16.753-2.864 17.022-2.594.27.27.01 2.22-.577 4.334-2.373 8.549-.364 17.313 5.554 24.227l3.524 4.117h-9.368c-16.689 0-28.635 4.817-39.788 16.043-7.822 7.873-12.187 15.002-16.347 26.696-2.874 8.078-3.118 9.774-3.135 21.761-.02 14.753 1.408 21.025 6.558 28.8 5.958 8.996 14.691 13.156 27.424 13.063 30.121-.219 72.228-27.044 98.973-63.053 7.081-9.534 19.102-32.124 18.308-34.405-.27-.776-1.909 1.703-3.659 5.535-7.025 15.385-22.276 34.999-38.248 49.193-33.019 29.342-72.883 42.03-85.383 27.174-4.667-5.546-5.856-9.569-5.854-19.807.004-31.72 24.331-65.801 47.345-66.33 5.784-.133 6.232.034 9.415 3.508 7.376 8.052 16.929 10.165 24.88 5.505 9.82-5.754 6.951-9.625-10.615-14.326-11.931-3.193-16.169-5.666-18.137-10.586-1.985-4.961-1.013-8.947 4.344-17.809 4.462-7.381 4.184-7.273 21.881-8.515 10.342-.726 12.073-.205 8.677 2.614-5.495 4.56-7.278 17.874-3.333 24.893 1.152 2.049 3.515 4.573 5.25 5.609 4.272 2.549 12.66 2.335 19.095-.488 10.676-4.682 27.17-19.432 33.161-29.655 3.367-5.746 5.627-14.805 4.833-19.373-1.287-7.41-7.676-15.536-15.324-19.49-8.995-4.652-26.496-5.786-38.948-2.525m807.627 11.818c-.525 5.472-7.746 21.21-17.733 38.65-6.93 12.102-25.46 42.086-28.248 45.709l-1.763 2.291-.022-3.782c-.031-5.281-2.111-9.567-6.855-14.122-3.065-2.942-4.844-3.881-7.226-3.813-9.104.258-26.032 13.861-36.89 29.643-1.655 2.405-5.156 8.788-7.78 14.182-3.98 8.183-6.263 11.351-13.771 19.108-12.645 13.065-15.801 12.057-9.504-3.036 3.332-7.986 10.599-18.153 22.254-31.134 4.837-5.387 7.75-9.482 7.75-10.893 0-3.114-5.087-10.86-9.145-13.924-1.845-1.394-5.191-3.076-7.435-3.739-3.59-1.06-4.555-.962-8.052.822-8.804 4.492-20.17 17.457-37.751 43.066C869.678 907.986 864 915.735 864 915.099c0-3.968 11.655-21.946 22.561-34.801 5.757-6.787 6.493-9.358 4.038-14.107-1.574-3.043-8.724-8.51-14.03-10.727-4.528-1.892-4.846-1.85-3.604.47 2.962 5.536-.329 13.663-13.372 33.015-11.96 17.746-17.462 24.709-25.973 32.869-9.196 8.818-10.773 7.313-5.731-5.465 3.652-9.255 9.799-18.367 21.044-31.198 10.448-11.921 11.129-14.198 6.078-20.326-2.936-3.561-9.388-7.918-13.693-9.247-2.09-.645-2.163-.449-1.715 4.622.343 3.883-.038 6.364-1.428 9.296l-1.895 4-1.242-4.484c-1.473-5.323-6.091-11.475-10.21-13.605-2.67-1.381-3.437-1.37-7.905.115-13.82 4.59-27.758 18.876-39.002 39.974-6.358 11.93-22.684 30.5-26.815 30.5-2.883 0 .686-12.679 6.015-21.368 3.579-5.835 13.895-18.419 19.372-23.632 3.809-3.625 6.507-7.887 6.507-10.279 0-2.465-6.164-10.76-9.878-13.294-5.576-3.803-10.344-4.779-14.622-2.991-8.176 3.416-22.868 20.354-40.74 46.966-5.918 8.813-10.76 15.715-10.76 15.339 0-4.398 12.634-24.292 22.971-36.169 7.752-8.908 7.912-11.125 1.258-17.538-4.329-4.173-13.839-9.757-14.867-8.729-.23.229.05 1.649.622 3.154 2.137 5.621-.867 12.38-14.498 32.614-14.546 21.592-28.397 36.942-32.065 35.535-1.94-.745-1.158-4.103 3.097-13.299 4.503-9.731 9.607-17.02 19.825-28.309 4.729-5.225 8.874-10.744 9.21-12.264.898-4.054-2.315-9.775-11.644-20.736-4.447-5.225-9.472-11.413-11.167-13.75-5.548-7.653-11.433-4.87-13.799 6.525l-1.174 5.654 3.777 3.171 3.778 3.172-4.205 8.488c-10.451 21.097-22.223 37.288-37.173 51.13-10.08 9.331-22.343 14.071-26.264 10.15-3.251-3.252-.873-15.699 4.306-22.535l1.891-2.496 2.865 2.746c1.576 1.51 3.784 2.745 4.906 2.745 5.804 0 27.795-19.078 33.797-29.319l2.779-4.742-2.78-4.219c-6.227-9.453-10.602-14.72-12.228-14.719-.945 0-4.637 1.382-8.206 3.07-4.871 2.304-8.739 5.355-15.531 12.249-10.264 10.419-17.025 20.056-21.605 30.795-5.677 13.311-3.783 21.616 7.623 33.422 5.63 5.827 6.637 6.463 10.233 6.463 6.569 0 13.472-5.377 23.75-18.5 8.607-10.99 33.283-48.502 37.331-56.751 2.72-5.543 3.616-6.6 5-5.906.928.465 3.825 1.856 6.437 3.091 2.687 1.269 4.75 2.924 4.75 3.809 0 .861-2.71 4.018-6.022 7.015-6.712 6.074-18.995 23.757-24.121 34.724-3.757 8.039-4.938 17.129-2.757 21.205.744 1.39 3.799 4.279 6.789 6.42 9.236 6.614 13.169 5.296 20.433-6.848 3.35-5.601 4.678-6.516 4.678-3.224 0 3.194 2.831 6.734 8.812 11.016 8.209 5.879 9.308 5.523 11.528-3.731 1.011-4.217 2.874-10.008 4.138-12.867 2.974-6.724 12.341-20.62 22.299-33.081C753.227 863.535 766 853.873 766 862.508c0 3.768-3.146 9.375-13.743 24.492-20.095 28.666-21.571 37.332-8.087 47.468 4.334 3.258 6.963 4.532 9.353 4.532 3.733 0 5.084-1.376 11.783-12l4.098-6.5.604 4c.831 5.51 2.478 7.734 8.813 11.906 9.167 6.037 9.295 5.968 23.21-12.406 6.664-8.8 12.315-16 12.556-16 .242 0-.229 1.601-1.047 3.558-2.529 6.053-2.973 12.703-1.092 16.341C814.45 931.772 825.206 939 828.966 939c3.387 0 5.504-2.012 11.008-10.459 4.357-6.689 4.456-6.765 5.186-4.034.888 3.319 4.786 7.615 10.52 11.593 6.357 4.41 7.57 3.983 9.501-3.35 3.931-14.926 8.3-22.918 23.514-43.008 9.058-11.96 18.861-22.512 25.322-27.254 6.314-4.636 7.983-4.569 7.983.321 0 4.447-3.185 10.113-14.262 25.373-13.125 18.081-18.032 29.367-15.761 36.248 1.212 3.672 7.89 10.416 12.859 12.985 6.548 3.386 9.396 1.643 17.015-10.415 3.634-5.751 4.109-6.177 4.128-3.7.041 5.507 3.709 9.902 11.721 14.045 6.623 3.425 7.101 3.079 20.888-15.095 15.829-20.866 15.991-21.037 13.065-13.743-5.338 13.305-4.133 19.192 5.268 25.726 5.689 3.954 10.288 4.82 13.37 2.517.92-.687 4.511-5.598 7.98-10.911l6.308-9.662 2.945 5.626c1.62 3.095 5.493 8.23 8.607 11.412 4.913 5.021 6.158 5.785 9.427 5.785 7.298 0 16.446-7.843 28.321-24.281l5.621-7.781.611 7.781c.882 11.217 2.767 19.159 5.103 21.495 4.409 4.409 17.738-.03 25.28-8.419 7.133-7.933 7.541-13.278 2.495-32.647-1.878-7.21-2.016-8.986-1.007-13 1.558-6.198 5.373-11.308 11.819-15.831 1.733-1.215 2.586-1.33 3.45-.466 1.802 1.802-2.557 9.807-6.656 12.226l-3.396 2.003 1.226 5.273c.674 2.9 1.556 5.806 1.959 6.46 2.001 3.237 11.765-.787 23.362-9.628 9.469-7.218 18.254-15.052 18.254-16.278 0-1.902-2.694-.714-11.45 5.049-8.862 5.832-16.321 9.606-17.216 8.711-.247-.247.926-2.685 2.608-5.419 3.959-6.433 3.862-8.949-.542-14.094-7.255-8.476-14.249-9.503-22.156-3.252-10.184 8.05-15.897 17.579-16.886 28.166-.493 5.278-.029 8.796 2.519 19.092 3.691 14.918 3.982 20.753 1.16 23.306-2.634 2.385-4.492 1.463-7.907-3.922-3.535-5.574-5.39-14.552-4.989-24.147.167-4.007.025-7.565-.316-7.906-.341-.341-3.413 2.672-6.825 6.695-16.23 19.132-26.353 27.078-36.218 28.43-3.469.476-4.802.222-6.209-1.185-2.692-2.693-1.685-10.731 2.379-18.986l3.3-6.703 2.925 3.129c1.632 1.746 3.938 3.129 5.219 3.129 6.071 0 27.808-18.765 33.958-29.315l2.806-4.815-5.24-7.685c-8.905-13.059-8.173-12.72-17.706-8.21-11.796 5.581-30.662 26.928-36.401 41.189-2.732 6.789-7.94 13.7-16.696 22.153-11.501 11.103-13.07 8.153-4.689-8.817 7.713-15.617 41.401-67.52 61.011-94 5.295-7.15 9.883-13.999 10.195-15.219.691-2.703-2.377-7.976-6.351-10.914-3.289-2.431-10.778-6.367-12.116-6.367-.502 0-1.122 2.182-1.379 4.85M250 786.017c-10.138 1.763-22.081 7.756-33.839 16.983l-7.009 5.5 9.674.675c12.481.871 23.024 2.818 24.782 4.576 1.06 1.06 1.129 1.871.292 3.436-.982 1.834-1.706 1.98-6.903 1.392-5.546-.627-5.894-.532-7.788 2.132-2.481 3.492-4.196 9.555-4.203 14.865-.007 4.758 3.104 8.424 7.149 8.424 3.877 0 13.615-5.316 21.021-11.476 16.973-14.117 26.061-34.312 18.883-41.959-2.558-2.725-10.603-5.648-14.991-5.447-1.412.064-4.593.469-7.068.899m280.292 8.669c-1.536 2.577-8.417 15.965-15.292 29.75-11.727 23.515-12.655 25.043-15 24.716-3.249-.452-3.186-.319-1.901-4.007 1.542-4.423.456-8.149-2.368-8.129-3.031.023-10.142 4.164-10.52 6.128-.169.874.778 2.887 2.103 4.473l2.41 2.883-4.969 8.5c-7.4 12.661-20.267 39.393-23.344 48.5-3.547 10.498-4.407 22.494-1.941 27.074 1.502 2.788 9.208 9.426 10.943 9.426.323 0 .587-1.705.587-3.79 0-4.591 2.269-13.596 5.342-21.206 4.991-12.354 38.544-63.773 42.048-64.434 5.22-.986 26.132-2.57 33.922-2.57 13.067 0 18.392 1.466 23.378 6.439 3.478 3.468 4.307 5.06 4.879 9.37.379 2.855 1.193 5.184 1.81 5.175 2.673-.04 9.065-4.77 10.767-7.968 2.791-5.246 2.39-8.68-1.466-12.536-7.637-7.637-21.767-8.696-64.069-4.801l-6.889.634 7.842-11.407c4.314-6.273 10.013-14.302 12.667-17.841 5.73-7.645 6.431-9.894 4.801-15.406-1.174-3.969-9.677-13.659-11.987-13.659-.528 0-2.217 2.109-3.753 4.686m-44.424 72.064c-8.147 13.652-18.088 33.347-17.256 34.19.612.62 2.216-1.749 17.154-25.346 13.022-20.57 13.846-22.524 9.521-22.579-.667-.008-4.906 6.173-9.419 13.735M286.39 855.574c2.627 6.847.728 12.024-10.694 29.163-10.114 15.174-14.109 22.808-16.194 30.947-2.255 8.804-.838 12.402 7.306 18.552 6.638 5.014 9.889 5.92 10.808 3.014 3.204-10.133 11.118-18.771 33.384-36.441 23.061-18.301 31.522-30.336 26.434-37.6-2.154-3.075-16.794-10.183-18.16-8.817-.227.228.567 2.337 1.767 4.687 2.547 4.994 2.364 11.073-.524 17.421-1.162 2.554-8.761 10.867-21.024 23-10.562 10.45-20.041 20.462-21.064 22.25-1.023 1.788-2.213 3.25-2.645 3.25-2.754 0 2.748-15.221 8.822-24.409 4.816-7.282 9.613-13.435 17.114-21.949 2.908-3.301 4.28-5.774 4.28-7.715 0-4.944-8.167-12.415-17.364-15.884-2.476-.934-2.78-.862-2.246.531m84.11.228c-13.73 4.77-28.481 20.409-39.111 41.464-7.648 15.15-9.39 28.911-4.34 34.286 3.654 3.889 11.357 8.448 14.277 8.448 2.81 0 6.54-4.206 20.613-23.244 3.542-4.791 6.559-8.591 6.706-8.445.146.147-.434 2.275-1.291 4.728-2.158 6.183-2.129 12.85.071 16.207 2.104 3.211 12.417 9.754 15.374 9.754 5.023 0 6.043-1.281 23.116-29.011 9.407-15.279 11.353-19.889 7.09-16.798-.993.72-6.303 6.954-11.801 13.853-5.498 6.9-12.031 14.212-14.518 16.25-7.155 5.863-8.659 4.848-5.675-3.826 4.029-11.709 11.479-22.809 24.478-36.468 6.928-7.281 8.287-10.599 6.083-14.86-2.002-3.872-8.053-9.023-13.354-11.368-4.975-2.201-5.614-2.018-4.402 1.26 1.016 2.747-.147 9.853-2.247 13.723l-1.489 2.745-.062-2.5c-.104-4.182-3.477-10.294-7.865-14.25-4.74-4.274-4.886-4.298-11.653-1.948m606.699 15.685c-10.396 4.84-25.279 21.798-33.252 37.888-4.023 8.119-6.185 16.625-4.226 16.625 2.697 0 35.772-37.478 42.874-48.582 5.641-8.818 4.203-10.399-5.396-5.931m-602.043 1.234c-11.123 5.409-24.569 20.931-32.653 37.693-4.532 9.396-6.561 16.586-4.681 16.586 2.342 0 13.873-12.482 35.005-37.893 5.806-6.982 12.141-16.542 12.164-18.357.018-1.498-4.611-.57-9.835 1.971m444.97.374c-14.193 7.092-34.256 34.36-36.748 49.944-.624 3.898-.539 4.116 1.226 3.146C791.691 922.291 831 875.37 831 870.804c0-1.712-4.95-.669-10.874 2.291M630 879.369c-4.125 3.492-9.502 8.737-11.948 11.655l-4.449 5.305 3.246-.649c6.525-1.305 14.102-8.058 19.971-17.798 4.156-6.897 2.712-6.582-6.82 1.487m415.93-2.697c-6.827 5.66-12.783 11.438-16.23 15.746l-3.135 3.919 3.389-.678c5.132-1.026 13.722-8.091 18.129-14.909 5.778-8.939 5.149-10.131-2.153-4.078M305.106 980.894c-1.23 1.23-2.826 1.62-5.399 1.32-3.16-.369-3.812-.077-4.832 2.161-.933 2.047-1.671 2.463-3.54 1.994-2.765-.694-5.335 1.098-5.335 3.718 0 1.014-.9 2.324-2 2.913-2.317 1.24-2.578 3.827-.652 6.461 1.162 1.589 1.08 2.111-.593 3.784-1.33 1.33-1.725 2.618-1.256 4.097.376 1.187.755 4.183.842 6.658.158 4.479.177 4.501 4.064 4.82 2.147.175 5.072.003 6.5-.384 2.59-.703 2.589-.706-.768-1.628-3.029-.832-3.307-1.208-2.793-3.776.395-1.975.122-3.023-.887-3.41-2.096-.805-1.81-5.363.411-6.551 1.318-.706 1.725-1.747 1.384-3.536-.358-1.868-.06-2.535 1.131-2.535 1.058 0 1.617-.864 1.617-2.5 0-3.446 3.487-3.328 7.389.25l2.999 2.75-2.75-3.394c-1.976-2.437-2.445-3.699-1.667-4.477.778-.778 1.568-.779 2.802-.001 1.315.83 1.985.717 2.864-.484 1.691-2.312 3.89-.081 5.252 5.329 1.538 6.106 1.212 9.055-.389 3.527-.717-2.475-1.379-3.825-1.472-3-.122 1.081-.434.942-1.117-.5-.729-1.536-.825-1.196-.412 1.466.505 3.26.447 3.349-.983 1.5-1.453-1.879-1.491-1.881-.849-.052.491 1.397.329 1.701-.601 1.127-.707-.437-.471.491.53 2.086l1.803 2.873-2.7-2.424c-1.484-1.334-2.699-2.031-2.699-1.55 0 .481-.54.334-1.2-.326-2.391-2.391-3.086-1.133-.748 1.356 2.133 2.27 2.181 2.483.424 1.906-1.608-.527-1.51-.256.524 1.458 2.115 1.782 2.192 2.018.5 1.534-1.1-.314-.312.366 1.75 1.511 4.319 2.399 4.929 3.434 1.185 2.01-1.411-.536-3.773-.943-5.25-.905-2.367.062-2.448.166-.685.876 1.867.751 1.833.837-.5 1.293-2.083.407-1.917.528 1 .724 3.192.216 3.28.299 1 .949-1.853.528-.43.956 5.5 1.654l8 .942.281-15.262c.163-8.838-.14-16.048-.718-17.129-1.444-2.697-4.879-3.301-6.957-1.223m640.269-.854c-3.18 1.202-4.425 6.072-3.71 14.521.343 4.058.966 7.167 1.384 6.909.672-.416.505 3.325-.46 10.28-.275 1.986.111 2.241 3.3 2.176 5.341-.11 13.212-1.614 10.111-1.932-2.121-.218-1.969-.369 1-.994l3.5-.737-3-.231-3-.231 2.5-.887c1.85-.656 1.24-.761-2.35-.405l-4.849.48 2.349-2.477c1.293-1.363 2.8-2.478 3.35-2.479.55-.001.325.434-.5.967-.825.533-1.05.969-.5.969s1.675-.436 2.5-.969c1.09-.704 1.142-.974.191-.985-.743-.008-.997-.521-.586-1.185.504-.815.149-.95-1.167-.444-1.566.601-1.479.286.51-1.83 1.32-1.406 1.927-2.556 1.349-2.556-.579 0-1.621.686-2.317 1.524-.696.838-1.485 1.304-1.754 1.035-.269-.269-1.364-.02-2.433.552-1.751.937-1.834.834-.834-1.035 1.03-1.924.705-2.502-1.23-2.187-.424.068-.474-1.116-.111-2.632l.66-2.757-1.989 2.5c-1.095 1.375-2.247 3.175-2.561 4-1.043 2.743-.821-1.124.295-5.142 1.18-4.249 3.323-6.396 5.183-5.194.712.46 2.419.836 3.794.836 1.718 0 2.42.494 2.246 1.577-.197 1.22.427 1.478 2.75 1.137 2.95-.433 3.511.21 3.079 3.536-.09.688.585 1.25 1.498 1.25 1.238 0 1.537.645 1.175 2.535-.341 1.789.066 2.83 1.384 3.536 2.221 1.188 2.507 5.746.411 6.551-1.011.388-1.282 1.435-.885 3.42.497 2.481.215 2.952-2.116 3.537-1.479.371-3.839.151-5.245-.49-1.405-.64-2.75-.97-2.987-.732-.237.237 1.544 1.186 3.958 2.108 8.029 3.066 16.095.505 13.144-4.174-.808-1.28-.685-2.395.487-4.438 1.481-2.58 1.438-2.866-.791-5.238-2.175-2.316-2.232-2.634-.732-4.133 2.167-2.168 2.048-4.139-.376-6.214-1.1-.942-2-2.497-2-3.455 0-2.184-3.463-4.118-5.957-3.327-1.32.419-2.07.004-2.514-1.393-.754-2.377-3.756-3.504-7.101-2.664-1.338.336-2.428.168-2.428-.375 0-1.655-3.377-2.864-5.625-2.014m-739.011 14.453c-.346.903-.15 2.121.436 2.707 1.524 1.524 4.41.131 4.012-1.935-.443-2.302-3.647-2.858-4.448-.772m8.303-.826c-1.199 1.199-.7 4.106.804 4.684 2.236.858 4.898-2.202 3.441-3.957-1.236-1.489-3.155-1.818-4.245-.727M420 995c-3.349 3.349-2.616 8.64 2.556 18.444 3.69 6.998 4.497 9.434 4.25 12.838-.223 3.056-.783 4.291-2.056 4.533-1.46.277-1.75-.426-1.75-4.242 0-4.932-.146-5.1-3.066-3.538-1.341.718-1.934 2.098-1.934 4.5 0 4.268 2.932 7.465 6.845 7.465 7.465 0 8.403-9.573 2.155-22-4.467-8.885-5.542-16.439-2.25-15.815 1.067.203 1.876 1.426 2.072 3.133.434 3.775 3.553 3.257 4.003-.665.67-5.832-6.545-8.933-10.825-4.653m253 0c-1.843 1.843-2 3.333-2 19s.157 17.157 2 19c2.398 2.398 5.746 2.567 8.777.443 1.873-1.311 2.223-2.492 2.223-7.5 0-3.269-.36-5.943-.8-5.943-1.841 0-3.2 2.646-3.2 6.231 0 4.087-2.435 6.271-4.086 3.665-.486-.768-.883-7.921-.883-15.896 0-14.874.58-17.747 3.368-16.677 1.174.451 1.601 1.955 1.601 5.646 0 2.767.36 5.031.8 5.031 3.49 0 4.565-10.455 1.371-13.345-2.48-2.245-6.741-2.085-9.171.345m100.223-.443c-3.804 2.664-3.048 8.951 2.34 19.46 3.518 6.862 4.491 9.769 4.25 12.692-.249 3.02-.72 3.791-2.313 3.791-1.638 0-2.056-.769-2.308-4.254-.279-3.867-.484-4.16-2.25-3.215-2.882 1.542-2.699 8.325.281 10.412 1.222.856 3.147 1.557 4.277 1.557 1.13 0 3.055-.701 4.277-1.557 1.814-1.27 2.222-2.513 2.217-6.75-.005-4.173-.899-6.953-4.548-14.151-4.982-9.826-5.657-15.042-1.946-15.042 1.526 0 2.074.771 2.313 3.251.277 2.874.539 3.131 2.25 2.215 2.493-1.334 2.554-6.097.108-8.311-2.298-2.08-6.06-2.121-8.948-.098M367 1014v20h5.893c4.451 0 6.042-.387 6.5-1.582.925-2.411.914-2.418-3.937-2.418h-4.544l.294-7.25c.27-6.655.479-7.276 2.546-7.57 1.239-.176 2.717-1.188 3.285-2.25.93-1.738.681-1.93-2.502-1.93H371v-6.5c0-6.452.021-6.5 2.8-6.5 2.699 0 5.2-1.539 5.2-3.2 0-.44-2.7-.8-6-.8h-6v20m101-18c0 1.556.667 2 3 2h3v18c0 17.333.074 18 2 18s2-.667 2-18v-18h2.965c1.941 0 3.334-.69 4.035-2 1.034-1.931.76-2-7.965-2-8.368 0-9.035.148-9.035 2m55 18v20h5.465c4.441 0 5.665-.375 6.535-2 .998-1.865.76-2-3.509-2h-4.579l.294-7.239c.257-6.324.547-7.287 2.294-7.616 1.933-.364 3.453-1.845 3.485-3.395.008-.413-1.335-.75-2.985-.75h-3v-13h2.965c1.941 0 3.334-.69 4.035-2 1.015-1.897.76-2-4.965-2H523v20m48-18c0 1.556.667 2 3 2h3v18c0 17.333.074 18 2 18s2-.667 2-18v-18h2.3c2.275 0 4.7-1.651 4.7-3.2 0-.44-3.825-.8-8.5-.8-7.833 0-8.5.157-8.5 2m54.7 17.713c.193 19.169.264 19.797 2.271 20.109 2.044.318 2.068.061 1.8-19.5-.259-18.955-.359-19.835-2.271-20.109-1.948-.279-1.995.228-1.8 19.5m99.3.287v20h5v-40h-5v20m96-18c0 1.556.667 2 3 2h3v18c0 17.333.074 18 2 18s2-.667 2-18v-18h2.3c2.275 0 4.7-1.651 4.7-3.2 0-.44-3.825-.8-8.5-.8-7.833 0-8.5.157-8.5 2m56-1.158c0 .953-4.495 30.892-5.466 36.408-.414 2.354-.147 2.75 1.855 2.75 2.239 0 2.41-.539 4.045-12.737.939-7.006 1.83-12.86 1.98-13.011.151-.15.831 4.344 1.511 9.987 1.835 15.217 1.991 15.761 4.519 15.761h2.194l-3.069-19.75c-2.897-18.641-3.195-19.768-5.319-20.07-1.237-.175-2.25.122-2.25.662m158.685.536c-.655 1.707 1.146 3.622 3.408 3.622 1.805 0 3.286-2.577 2.351-4.09-.876-1.418-5.169-1.069-5.759.468m8.679.115c-.346.903-.15 2.121.436 2.707 1.524 1.524 4.41.131 4.012-1.935-.443-2.302-3.647-2.858-4.448-.772m-821.697.174c-1.13 1.13-.739 4.029.706 5.228 1.98 1.643 4.627.273 4.627-2.395 0-2.722-3.556-4.611-5.333-2.833m-23.221 1.42c-1.147 1.856 1.252 3.408 3.012 1.948.848-.704 1.542-1.675 1.542-2.157 0-1.259-3.753-1.086-4.554.209m827.943.343c-.996 2.595.399 4.739 2.857 4.39 1.652-.235 2.254-.987 2.254-2.82 0-1.833-.602-2.585-2.254-2.82-1.353-.192-2.496.308-2.857 1.25m24.611.497c0 1.431.642 2.073 2.073 2.073s1.97-.539 1.739-1.739c-.502-2.606-3.812-2.897-3.812-.334M194.5 1000c-.816 1.32.38 3.192 1.569 2.457 1.215-.75 1.207-3.457-.01-3.457-.518 0-1.219.45-1.559 1m35.7.2c-1.8 1.8-1.447 4.598.728 5.761 3.987 2.134 7.42-1.813 4.441-5.106-1.946-2.15-3.48-2.344-5.169-.655m789.371 1.371c-.864.865-1.571 1.9-1.571 2.3 0 1.468 2.459 3.129 4.633 3.129 2.662 0 4.095-3.417 2.327-5.548-1.562-1.883-3.428-1.841-5.389.119m38.429-.071c0 .825.675 1.5 1.5 1.5s1.5-.675 1.5-1.5-.675-1.5-1.5-1.5-1.5.675-1.5 1.5m-867.808 2.575c.197.591.786 1.075 1.308 1.075s1.111-.484 1.308-1.075c.197-.591-.391-1.075-1.308-1.075s-1.505.484-1.308 1.075M1062 1005c0 .55.675 1 1.5 1s1.5-.45 1.5-1-.675-1-1.5-1-1.5.45-1.5 1m-764 10.5c-1.375.786-2.05 1.429-1.5 1.429.55 0 2.125-.643 3.5-1.429s2.05-1.429 1.5-1.429c-.55 0-2.125.643-3.5 1.429m710 5c.685.825 1.672 1.5 2.194 1.5s.274-.675-.551-1.5c-.825-.825-1.812-1.5-2.194-1.5-.382 0-.134.675.551 1.5" fill="undefined" fill-rule="evenodd"/></svg>